# File created by Blade
# Date/Time:  Thu Jan 15 17:55:17 2015
#---------------------------------------------------------
:version 1.10
:name HOM
:units
  mass 1.0
  length 1.000000
  angle deg
:documentation
     Acclaim Skeleton File
:root
   axis xyz
   order TX TY TZ RX RY RZ
   position 0.000000 0.000000 0.000000
   orientation 0 0 0
:bonedata
   begin
      id 1
      name Spine_dum
      direction 0.000000 1.000000 0.000000
      length 5.015652
      axis 0.0 0.0 0.0 xyz
   end
   begin
      id 2
      name LeftUpLeg_dum
      direction 1.000000 0.000000 0.000000
      length 4.275145
      axis 0.0 0.0 0.0 xyz
   end
   begin
      id 3
      name RightUpLeg_dum
      direction -1.000000 0.000000 0.000000
      length 4.275145
      axis 0.0 0.0 0.0 xyz
   end
   begin
      id 4
      name Spine
      direction 0.000000 1.000000 0.000000
      length 0.000000
      axis 0.0 0.0 0.0 xyz
      dof rx ry rz
   end
   begin
      id 5
      name Spine_dum1
      direction 0.000000 1.000000 0.000000
      length 15.980521
      axis 0.0 0.0 0.0 xyz
   end
   begin
      id 6
      name Spine_dum2
      direction 0.000000 1.000000 0.000000
      length 12.162712
      axis 0.0 0.0 0.0 xyz
   end
   begin
      id 7
      name Spine_dum3
      direction 0.000000 1.000000 0.000000
      length 12.162712
      axis 0.0 0.0 0.0 xyz
   end
   begin
      id 8
      name Head
      direction 0.000000 1.000000 0.000000
      length 4.527550
      axis 0.0 0.0 0.0 xyz
      dof rx ry rz
   end
   begin
      id 9
      name LeftShoulder
      direction 1.000000 0.000000 0.000000
      length 7.205867
      axis 0.0 0.0 -90.0 xyz
      dof rx ry rz
   end
   begin
      id 10
      name LeftArm
      direction 1.000000 0.000000 0.000000
      length 10.786708
      axis 0.0 0.0 -90.0 xyz
      dof rx ry rz
   end
   begin
      id 11
      name LeftForeArm
      direction 1.000000 0.000000 0.000000
      length 7.946034
      axis 0.0 0.0 -90.0 xyz
      dof rz ry rx
   end
   begin
      id 12
      name LeftHand
      direction 0.000000 0.000000 0.000000
      length 0.000000
      axis 0.0 0.0 -90.0 xyz
      dof rx ry rz
   end
   begin
      id 13
      name LeftHand_dum1
      direction 0.000000 0.000000 0.000000
      length 0.000000
      axis 0.0 0.0 -90.0 xyz
   end
   begin
      id 14
      name LeftHand_dum2
      direction 1.000000 0.000000 0.000000
      length 3.937000
      axis 0.0 0.0 -90.0 xyz
   end
   begin
      id 15
      name LeftHandThumb1
      direction 0.000000 0.000000 1.000000
      length 3.937000
      axis 0.0 0.0 -90.0 xyz
      dof rx ry rz
   end
   begin
      id 16
      name RightShoulder
      direction -1.000000 0.000000 0.000000
      length 7.205867
      axis 0.0 0.0 90.0 xyz
      dof rx ry rz
   end
   begin
      id 17
      name RightArm
      direction -1.000000 0.000000 0.000000
      length 10.786708
      axis 0.0 0.0 90.0 xyz
      dof rx ry rz
   end
   begin
      id 18
      name RightForeArm
      direction -1.000000 0.000000 0.000000
      length 7.946034
      axis 0.0 0.0 90.0 xyz
      dof rz ry rx
   end
   begin
      id 19
      name RightHand
      direction 0.000000 0.000000 0.000000
      length 0.000000
      axis 0.0 0.0 90.0 xyz
      dof rx ry rz
   end
   begin
      id 20
      name RightHand_dum1
      direction 0.000000 0.000000 0.000000
      length 0.000000
      axis 0.0 0.0 90.0 xyz
   end
   begin
      id 21
      name RightHand_dum2
      direction -1.000000 0.000000 0.000000
      length 3.937000
      axis 0.0 0.0 90.0 xyz
   end
   begin
      id 22
      name RightHandThumb1
      direction 0.000000 0.000000 1.000000
      length 3.937000
      axis 0.0 0.0 90.0 xyz
      dof rx ry rz
   end
   begin
      id 23
      name LeftUpLeg
      direction 0.000000 -1.000000 0.000000
      length 17.046659
      axis 0.0 0.0 0.0 xyz
      dof rx ry rz
   end
   begin
      id 24
      name LeftLeg
      direction 0.000000 -1.000000 0.000000
      length 17.458438
      axis 0.0 0.0 0.0 xyz
      dof rx ry rz
   end
   begin
      id 25
      name LeftFoot
      direction 0.000000 -0.258819 0.965926
      length 5.099406
      axis 15.0 0.0 0.0 xyz
      dof rx ry rz
   end
   begin
      id 26
      name LeftToeBase
      direction 0.000000 0.000000 1.000000
      length 2.952750
      axis 0.0 0.0 0.0 xyz
      dof rx ry rz
   end
   begin
      id 27
      name RightUpLeg
      direction 0.000000 -1.000000 0.000000
      length 17.046659
      axis 0.0 0.0 0.0 xyz
      dof rx ry rz
   end
   begin
      id 28
      name RightLeg
      direction 0.000000 -1.000000 0.000000
      length 17.458438
      axis 0.0 0.0 0.0 xyz
      dof rx ry rz
   end
   begin
      id 29
      name RightFoot
      direction 0.000000 -0.258819 0.965926
      length 5.099406
      axis 15.0 0.0 0.0 xyz
      dof rx ry rz
   end
   begin
      id 30
      name RightToeBase
      direction 0.000000 0.000000 1.000000
      length 2.952750
      axis 0.0 0.0 0.0 xyz
      dof rx ry rz
   end
:hierarchy
   begin
      root Spine_dum LeftUpLeg_dum RightUpLeg_dum
      Spine_dum Spine
      LeftUpLeg_dum LeftUpLeg
      RightUpLeg_dum RightUpLeg
      Spine Spine_dum1 Spine_dum2 Spine_dum3
      Spine_dum1 Head
      Spine_dum2 LeftShoulder
      Spine_dum3 RightShoulder
      LeftShoulder LeftArm
      LeftArm LeftForeArm
      LeftForeArm LeftHand
      LeftHand LeftHand_dum1 LeftHand_dum2
      LeftHand_dum1 LeftHandThumb1
      RightShoulder RightArm
      RightArm RightForeArm
      RightForeArm RightHand
      RightHand RightHand_dum1 RightHand_dum2
      RightHand_dum1 RightHandThumb1
      LeftUpLeg LeftLeg
      LeftLeg LeftFoot
      LeftFoot LeftToeBase
      RightUpLeg RightLeg
      RightLeg RightFoot
      RightFoot RightToeBase
   end

# File created by Blade
# Date/Time:  Thu Jan 15 17:55:09 2015
# Frame Rate: 120.000 fps
#------------------------------------------------------
:FULLY-SPECIFIED
:DEGREES
836
root 11.459587 35.571558 -10.107370 3.693629 -14.940111 2.337718
Spine -0.621218 -21.141012 -2.059601
Head -3.380596 8.737925 23.932581
LeftShoulder -29.766162 5.229102 3.861749
LeftArm 8.926145 1.058937 -65.551070
LeftForeArm -0.000000 39.624534 11.615832
LeftHand 12.436679 0.000000 7.029926
LeftHandThumb1 -26.253704 33.147579 0.000000
RightShoulder -3.741752 6.470951 2.249744
RightArm 6.461824 19.543305 44.190444
RightForeArm -0.000000 -35.437634 26.280558
RightHand 8.282070 -0.000000 -1.397293
RightHandThumb1 -24.326973 -32.862282 -0.000000
LeftUpLeg 4.629420 8.588069 -3.406651
LeftLeg -1.372051 -0.000000 0.000000
LeftFoot -25.192818 19.413954 -14.077482
LeftToeBase 23.872693 -0.000000 -0.000000
RightUpLeg -13.872670 -19.419168 -9.426175
RightLeg 14.964735 -0.000000 -0.000000
RightFoot -14.903759 -35.105572 7.324040
RightToeBase 2.458391 -0.000000 -0.000000
837
root 11.487432 35.554484 -10.079081 3.700514 -15.184378 2.462283
Spine -0.687331 -21.138846 -1.652823
Head -3.299646 8.898517 23.830048
LeftShoulder -30.032153 5.240901 3.558481
LeftArm 8.643914 -0.380500 -64.952731
LeftForeArm -0.000000 38.723013 10.615558
LeftHand 12.020827 -0.000000 6.588752
LeftHandThumb1 -26.253704 33.147579 0.000000
RightShoulder -3.622498 6.932445 1.626125
RightArm 6.558075 20.778098 43.056491
RightForeArm -0.000000 -34.833255 26.232538
RightHand 7.923672 -0.000000 -1.904043
RightHandThumb1 -24.326973 -32.862282 -0.000000
LeftUpLeg 4.693586 8.643684 -3.608532
LeftLeg -1.473204 -0.000000 0.000000
LeftFoot -25.221390 19.558184 -13.979004
LeftToeBase 23.802805 -0.000000 -0.000000
RightUpLeg -13.351466 -19.212076 -10.035474
RightLeg 13.361936 -0.000000 -0.000000
RightFoot -13.544799 -35.420198 7.086196
RightToeBase 2.692426 -0.000000 -0.000000
838
root 11.507296 35.534391 -10.052343 3.723795 -15.436978 2.599019
Spine -0.761284 -21.074686 -1.269725
Head -3.283921 9.005717 23.744025
LeftShoulder -30.265313 5.197592 3.311999
LeftArm 8.276962 -2.039375 -64.341394
LeftForeArm -0.000000 38.055651 9.791393
LeftHand 11.644124 -0.000000 6.046456
LeftHandThumb1 -26.253704 33.147579 0.000000
RightShoulder -3.537380 7.356150 1.060549
RightArm 6.646966 21.955631 41.866120
RightForeArm -0.000000 -34.160892 26.272385
RightHand 7.347225 -0.000000 -2.600999
RightHandThumb1 -24.326973 -32.862282 -0.000000
LeftUpLeg 4.737581 8.663859 -3.817168
LeftLeg -1.567063 -0.000000 0.000000
LeftFoot -25.295118 19.722363 -13.884909
LeftToeBase 23.866759 -0.000000 -0.000000
RightUpLeg -12.818209 -18.786896 -10.639679
RightLeg 11.845046 -0.000000 -0.000000
RightFoot -12.568845 -34.871748 6.994072
RightToeBase 3.676256 -0.000000 -0.000000
839
root 11.522279 35.511904 -10.026160 3.774998 -15.668346 2.727902
Spine -0.873572 -20.953781 -0.857718
Head -3.280070 9.052228 23.644498
LeftShoulder -30.558499 5.185984 3.033871
LeftArm 8.031331 -3.656764 -63.660610
LeftForeArm -0.000000 37.335418 9.034903
LeftHand 11.207604 -0.000000 5.697531
LeftHandThumb1 -26.253704 33.147579 0.000000
RightShoulder -3.517074 7.728989 0.436112
RightArm 6.699648 23.168177 40.832698
RightForeArm -0.000000 -33.154782 26.441851
RightHand 6.930019 -0.000000 -3.175200
RightHandThumb1 -24.326973 -32.862282 -0.000000
LeftUpLeg 4.769954 8.627344 -4.016389
LeftLeg -1.694096 -0.000000 0.000000
LeftFoot -25.333636 19.971112 -13.752343
LeftToeBase 23.761303 -0.000000 -0.000000
RightUpLeg -12.318087 -18.329129 -11.212688
RightLeg 10.439977 -0.000000 -0.000000
RightFoot -11.479300 -33.750301 6.643567
RightToeBase 5.540131 -0.000000 -0.000000
